<svg xmlns="http://www.w3.org/2000/svg" viewBox="0 0 43.92 40"><defs><style>.cls-1{fill:#fff;}.cls-2{fill:none;}</style></defs><title>bell</title><g id="Capa_2" data-name="Capa 2"><g id="Capa_1-2" data-name="Capa 1"><g id="Group_1974" data-name="Group 1974"><g id="Group_1690" data-name="Group 1690"><path id="Path_1638" data-name="Path 1638" class="cls-1" d="M38.32,33.14,34,15.25c-1.17-4.88-3.78-8.36-7.3-10,0-.15,0-.33,0-.48a4.77,4.77,0,0,0-9.53,0h0a2.25,2.25,0,0,0,0,.48c-3.51,1.61-6.12,5.1-7.29,10L5.59,33.14a.59.59,0,0,0,.11.48.52.52,0,0,0,.44.22h14v1.62a2.79,2.79,0,1,0,4.95,1.76,2.86,2.86,0,0,0-.62-1.76V33.83H37.74a.52.52,0,0,0,.44-.22A.46.46,0,0,0,38.32,33.14ZM18.31,4.8a3.67,3.67,0,0,1,7.33,0h0c-.15,0-.33-.11-.51-.15h0l-.44-.11a6.47,6.47,0,0,0-.73-.15h-.11l-.88-.11h0a7.66,7.66,0,0,0-.92,0,7.36,7.36,0,0,0-.92,0h0l-.88.11H20.1a5.69,5.69,0,0,0-.77.15l-.44.11s0,0-.07,0l-.51.11Zm4,34.09a1.68,1.68,0,0,1-1.69-1.68h0A1.77,1.77,0,0,1,21.09,36a.47.47,0,0,0,.15-.37V33.83H23.4v1.83a.42.42,0,0,0,.15.37A1.77,1.77,0,0,1,24,37.2a1.74,1.74,0,0,1-1.72,1.69Zm1.8-6.15a.33.33,0,0,0-.18,0H20.65a.33.33,0,0,0-.18,0H6.83L11,15.51c1.36-5.68,4.77-9.31,9.27-10a10,10,0,0,1,3.3,0c4.55.7,8,4.33,9.35,10l4.18,17.23Z"/></g></g><rect class="cls-2" width="43.92" height="40"/></g></g></svg>