<svg xmlns="http://www.w3.org/2000/svg" viewBox="0 0 43.92 40"><defs><style>.cls-1{fill:#fff;}.cls-2{fill:none;}</style></defs><title>cart</title><g id="Capa_2" data-name="Capa 2"><g id="Capa_1-2" data-name="Capa 1"><g id="Group_832" data-name="Group 832"><path id="Path_1" data-name="Path 1" class="cls-1" d="M17.28,28.43a4,4,0,1,0,4,4A4,4,0,0,0,17.28,28.43Zm0,6.77a2.83,2.83,0,1,1,2.83-2.83h0A2.87,2.87,0,0,1,17.28,35.2Z"/><path id="Path_2" data-name="Path 2" class="cls-1" d="M33.54,28.43a4,4,0,1,0,4,4A4,4,0,0,0,33.54,28.43Zm0,6.77a2.83,2.83,0,1,1,2.83-2.83h0A2.87,2.87,0,0,1,33.54,35.2Z"/><path id="Path_3" data-name="Path 3" class="cls-1" d="M40.8,6.71a.63.63,0,0,0-.46-.31h-27a.57.57,0,0,0,0,1.15H39.5L34.38,22.09H14.3L9.37,7A4.81,4.81,0,0,0,7.3,4.23a4.88,4.88,0,0,0-3.86-.38A.55.55,0,0,0,3,4.5v0a.57.57,0,0,0,.69.42h0a3.6,3.6,0,0,1,3.63.77,3.85,3.85,0,0,1,.92,1.57v0l4.9,14.91a.75.75,0,0,0,0,.27l1.41,4.59a.61.61,0,0,0,.54.42H34.3a.57.57,0,0,0,0-1.15H15.56l-1-3.06h20.2a.61.61,0,0,0,.54-.42l5.58-15.6A.62.62,0,0,0,40.8,6.71Z"/></g><rect class="cls-2" width="43.92" height="40"/></g></g></svg>