<svg xmlns="http://www.w3.org/2000/svg" width="55.546" height="52.201" viewBox="0 0 55.546 52.201">
  <g id="Grupo_2155" data-name="Grupo 2155" transform="translate(11062 19236.785)">
    <g id="_7" data-name="7" transform="translate(-11062 -19236.785)">
      <path id="Trazado_2159" data-name="Trazado 2159" d="M55.776,67.495v7.789c0,8.865-12.1,16.044-27.026,16.044S1.731,84.148,1.731,75.284V67.495c0,8.865,12.094,16.044,27.019,16.044a40.455,40.455,0,0,0,15.97-3.1C51.42,77.526,55.776,72.814,55.776,67.495Z" transform="translate(-0.98 -39.878)" fill="#00abe6"/>
      <path id="Trazado_2160" data-name="Trazado 2160" d="M27.771,92.079C12.458,92.079,0,84.545,0,75.283V67.495H1.5c0,8.433,11.784,15.294,26.268,15.294s26.276-6.861,26.276-15.294h1.5v7.789C55.547,84.545,43.087,92.079,27.771,92.079ZM1.5,72.946v2.337c0,8.433,11.784,15.294,26.268,15.294s26.276-6.861,26.276-15.294V72.946C50.294,79.539,39.933,84.29,27.77,84.29S5.253,79.54,1.5,72.946Z" transform="translate(-0.001 -39.878)" fill="#0478a0"/>
      <path id="Trazado_2161" data-name="Trazado 2161" d="M57.045,49.422c0,7.286-10.231,13.2-22.856,13.2S11.34,56.708,11.34,49.422,21.571,36.217,34.189,36.217,57.045,42.129,57.045,49.422Z" transform="translate(-6.419 -22.173)" fill="#ffe578"/>
      <path id="Trazado_2162" data-name="Trazado 2162" d="M28.75,30.507c-14.926,0-27.019,7.187-27.019,16.052S13.825,62.6,28.75,62.6s27.026-7.18,27.026-16.044S43.676,30.507,28.75,30.507Zm0,28.882C16.132,59.389,5.9,53.476,5.9,46.19S16.132,32.985,28.75,32.985,51.606,38.9,51.606,46.19,41.374,59.389,28.75,59.389Z" transform="translate(-0.98 -18.941)" fill="#17c900"/>
      <path id="Trazado_2163" data-name="Trazado 2163" d="M27.771,62.121C12.458,62.121,0,54.587,0,45.325c0-9.372,12.459-17,27.773-17s27.773,7.625,27.773,17C55.547,54.586,43.087,62.121,27.771,62.121Zm0-32.292c-14.241,0-26.272,7.1-26.272,15.5,0,8.433,11.784,15.294,26.268,15.294s26.276-6.861,26.276-15.294C54.046,36.925,42.015,29.829,27.774,29.829Zm0,29.077c-13.013,0-23.6-6.257-23.6-13.949S14.462,31.249,27.6,31.249c13.333,0,23.778,6.021,23.778,13.708S40.787,58.906,27.771,58.906ZM27.6,32.751c-12.3,0-21.926,5.362-21.926,12.207,0,6.864,9.913,12.448,22.1,12.448s22.105-5.584,22.105-12.448C49.875,38.226,39.882,32.751,27.6,32.751Z" transform="translate(-0.001 -17.708)" fill="#168807"/>
      <path id="Trazado_2164" data-name="Trazado 2164" d="M52.836,53.924l4.514,3.363s4.6-3.275,1.859-5.93a11.015,11.015,0,0,0-1.48-1.2l.921-1.088-1.784-.959-.983,1.04a8.079,8.079,0,0,0-7.177.173c-3.481,1.947-3.57,4.6-2.95,6.372s-.885,4.426-2.744,3.452,1.062-2.39,1.062-2.39l-3.186-2.882s-4.917,2.8-3.717,5.095c.755,1.442,1.419,1.73,1.419,1.73l-1.065,1.368,1.463,1.088,1.37-1.442s4.126,2.921,8.17.8,4.4-5.375,3.69-6.67-1.062-3.242-.089-3.773,2.213.177,1.947.62A7.821,7.821,0,0,1,52.836,53.924Z" transform="translate(-20.933 -28.904)" fill="#c88f00"/>
      <path id="Trazado_2165" data-name="Trazado 2165" d="M55.776,43.021V50.81c0,8.865-12.1,16.044-27.026,16.044S1.731,59.674,1.731,50.81V43.021c0,8.865,12.094,16.044,27.019,16.044S55.776,51.886,55.776,43.021Z" transform="translate(-0.98 -26.024)" fill="#00abe6"/>
      <path id="Trazado_2166" data-name="Trazado 2166" d="M27.771,67.606C12.458,67.606,0,60.072,0,50.811V43.022H1.5c0,8.433,11.784,15.294,26.268,15.294s26.276-6.861,26.276-15.294h1.5v7.789C55.547,60.071,43.087,67.606,27.771,67.606ZM1.5,48.473v2.338C1.5,59.244,13.286,66.1,27.77,66.1s26.276-6.861,26.276-15.294V48.473C50.294,55.066,39.933,59.817,27.77,59.817S5.253,55.067,1.5,48.473Z" transform="translate(-0.001 -26.025)" fill="#0478a0"/>
      <path id="Trazado_2167" data-name="Trazado 2167" d="M57.045,24.949c0,7.286-10.231,13.2-22.856,13.2S11.34,32.235,11.34,24.949,21.571,11.744,34.189,11.744,57.045,17.656,57.045,24.949Z" transform="translate(-6.419 -8.32)" fill="#7bf06c"/>
      <path id="Trazado_2168" data-name="Trazado 2168" d="M28.749,6.033C13.824,6.033,1.73,13.219,1.73,22.084S13.824,38.129,28.749,38.129s27.026-7.18,27.026-16.044S43.675,6.033,28.749,6.033Zm0,28.882C16.132,34.915,5.9,29,5.9,21.716S16.132,8.511,28.749,8.511s22.856,5.912,22.856,13.205S41.374,34.915,28.749,34.915Z" transform="translate(-0.98 -5.088)" fill="#17c900"/>
      <path id="Trazado_2169" data-name="Trazado 2169" d="M27.771,37.647C12.458,37.647,0,30.113,0,20.852c0-9.372,12.459-17,27.773-17s27.773,7.625,27.773,17C55.547,30.112,43.087,37.647,27.771,37.647Zm0-32.291c-14.241,0-26.272,7.1-26.272,15.5,0,8.433,11.784,15.294,26.268,15.294s26.276-6.861,26.276-15.294C54.046,12.452,42.015,5.356,27.774,5.356Zm0,29.076c-13.013,0-23.6-6.257-23.6-13.949S14.462,6.775,27.6,6.775c13.333,0,23.778,6.021,23.778,13.708S40.787,34.432,27.771,34.432ZM27.6,8.277c-12.3,0-21.926,5.362-21.926,12.207,0,6.864,9.913,12.448,22.1,12.448s22.105-5.584,22.105-12.448C49.875,13.752,39.882,8.277,27.6,8.277Z" transform="translate(-0.001 -3.855)" fill="#168807"/>
    </g>
    <path id="Trazado_2172" data-name="Trazado 2172" d="M1.45,7.654A15.585,15.585,0,0,1,3.99,4.118,16.977,16.977,0,0,1,6.925,1.172a4.612,4.612,0,0,1,3-1.17l1.017.012a2.07,2.07,0,0,1,2.127,1.053,2.8,2.8,0,0,1,.315,1.369c-.047.99-.017,1.958-.156,2.975a3.3,3.3,0,0,0,.039,1.255c.18.711.994.919,2.08.523a8.56,8.56,0,0,0,2.3-1.357,45.674,45.674,0,0,1,3.761-2.75,6.294,6.294,0,0,1,4.369-1.288c1.693.329,2.448,2.144,1.868,3.883a12,12,0,0,1-1.206,3.016,17.362,17.362,0,0,1-1.865,2.8,26.1,26.1,0,0,1-2.553,2.939,6.3,6.3,0,0,1-1.545,1.215,2.113,2.113,0,0,1-1.856.245c-.476-.215-.495-.638-.256-1.162a6.78,6.78,0,0,1,1.347-1.768,26.769,26.769,0,0,0,2.28-2.678,1.889,1.889,0,0,0,.429-.954c.029-.46-.332-.551-.939-.217a8.439,8.439,0,0,0-1.2.891c-1.649,1.324-3.2,2.718-4.982,3.948-2.96,2.043-6.5,1.722-7.381.344a3.462,3.462,0,0,1-.3-2.519,18.81,18.81,0,0,0,.453-4.053,1.588,1.588,0,0,0-.593-1.391q-.751-.482-1.626.435A7.241,7.241,0,0,0,4.5,9.041a17.105,17.105,0,0,1-1.094,2.412A2.926,2.926,0,0,1,1.6,12.715c-.828.168-1.394-.046-1.552-.6a1.575,1.575,0,0,1,.138-1.127A10.865,10.865,0,0,1,1.45,7.654Z" transform="translate(-11037.559 -19236.047) rotate(43)" fill="#fff"/>
  </g>
</svg>
