<svg xmlns="http://www.w3.org/2000/svg" viewBox="0 0 43.92 40"><defs><style>.cls-1{fill:#fff;}.cls-2{fill:none;}</style></defs><title>heart</title><g id="Capa_2" data-name="Capa 2"><g id="Capa_1-2" data-name="Capa 1"><g id="Group_834" data-name="Group 834"><path id="Path_921" data-name="Path 921" class="cls-1" d="M37.39,6.7A9.51,9.51,0,0,0,30.67,4,9.64,9.64,0,0,0,23.94,6.7L22,8.63,20,6.7A9.58,9.58,0,0,0,13.29,4,9.49,9.49,0,0,0,6.6,6.7,10.09,10.09,0,0,0,6.24,21l.32.32,15,14.54A.54.54,0,0,0,22,36a.44.44,0,0,0,.38-.15l15-14.54A10.12,10.12,0,0,0,40.45,14,9.85,9.85,0,0,0,37.39,6.7ZM36.6,20.49,22,34.66,7.36,20.49A9,9,0,0,1,7.11,7.78l.25-.25a8.43,8.43,0,0,1,5.93-2.38,8.37,8.37,0,0,1,5.93,2.38L21.6,9.84a.55.55,0,0,0,.77,0l0,0,2.38-2.31a8.28,8.28,0,0,1,5.89-2.38A8.37,8.37,0,0,1,36.6,7.53,9,9,0,0,1,39.35,14,8.72,8.72,0,0,1,36.6,20.49Z"/><path id="Path_922" data-name="Path 922" class="cls-1" d="M11.36,7.38A7.87,7.87,0,0,0,8.76,9,8.39,8.39,0,0,0,6.19,15a.55.55,0,0,0,.57.53h0A.55.55,0,0,0,7.32,15,7.13,7.13,0,0,1,9.54,9.84,7.28,7.28,0,0,1,11.77,8.4a.56.56,0,0,0,.34-.71h0A.64.64,0,0,0,11.36,7.38Z"/></g><rect class="cls-2" width="43.92" height="40"/></g></g></svg>