<svg xmlns="http://www.w3.org/2000/svg" width="139" height="40.93" viewBox="0 0 139 40.93">
  <g id="Grupo_2161" data-name="Grupo 2161" transform="translate(9077 21215)">
    <g id="Grupo_2111" data-name="Grupo 2111" transform="translate(98 1406)">
      <path id="Trazado_2116" data-name="Trazado 2116" d="M201.722,294.595c-.21-.621-.3-1.271-.509-1.9a11.846,11.846,0,0,0-2.106-3.913,11.035,11.035,0,0,0-3.65-2.9c-.062-.031-.11-.075-.17-.106-.381-.2-.379-.2-.139-.542a8.638,8.638,0,0,0,1.494-4.529,6.787,6.787,0,0,1,.082-1.127l-.1-1.491a.181.181,0,0,1,.064-.037,11.313,11.313,0,0,0-.4-1.639,1.764,1.764,0,0,1-.109-.194.661.661,0,0,1,.034.188.635.635,0,0,1-.178-.481,1.641,1.641,0,0,1,.1.175.748.748,0,0,1-.037-.18,3.2,3.2,0,0,0-.423-.959c-.03-.034-.061-.068-.09-.1a.771.771,0,0,1,.024.112c-.092-.06-.175-.125-.165-.252a.2.2,0,0,1,.073.036.334.334,0,0,1-.024-.064,3.691,3.691,0,0,0-.783-1.121,8.338,8.338,0,0,0-1.755-1.462.328.328,0,0,1-.038.047,12.421,12.421,0,0,0-1.415-.645h0c-.472-.124-.937-.285-1.417-.363a12.751,12.751,0,0,0-6.779.519,7.2,7.2,0,0,0-3.153,2.323,7.876,7.876,0,0,0-1.48,3.355,12.469,12.469,0,0,0-.046,4.529,7.985,7.985,0,0,0,1.465,3.523c.108.144.125.221-.068.3a10.246,10.246,0,0,0-1.532.855,10.865,10.865,0,0,0-3.216,3.227,11.773,11.773,0,0,0-1.521,3.451,17.455,17.455,0,0,0-.6,5.215,4.2,4.2,0,0,0,.963,2.613,5.724,5.724,0,0,0,3,1.727,16.988,16.988,0,0,0,4.173.572,132.166,132.166,0,0,0,14.224-.142,11.138,11.138,0,0,0,4.012-.982,4.259,4.259,0,0,0,1.9-1.707,4.786,4.786,0,0,0,.6-2.555c-.018-.657-.049-1.314-.074-1.971h0C201.8,295.544,201.829,295.059,201.722,294.595Zm-21.9-15.256a9,9,0,0,1,.554-2.982,5.606,5.606,0,0,1,2.373-2.9,9.525,9.525,0,0,1,5.292-1.161,10.44,10.44,0,0,1,2.366.326,6.07,6.07,0,0,1,3.9,2.732,6.982,6.982,0,0,1,.84,2.25,11.838,11.838,0,0,1,.1,3.751c-.052.452-.188.9-.285,1.343a.292.292,0,0,1-.124.3,5.731,5.731,0,0,1-3.171,3.421c-.043.118-.139.125-.243.117a11.428,11.428,0,0,1-5.6.517,8.539,8.539,0,0,1-2.512-.729,5.637,5.637,0,0,1-2.641-2.568A9.04,9.04,0,0,1,179.82,279.339Zm20.78,19.283a2.814,2.814,0,0,1-1.695,2.383,8.35,8.35,0,0,1-2.547.714,61.268,61.268,0,0,1-7.471.38c-2.278.069-4.555-.04-6.832-.1a27.374,27.374,0,0,1-2.778-.193c-.533-.069-1.059-.186-1.588-.281a.78.78,0,0,1-.546-.17,4.277,4.277,0,0,1-1.717-.922,2.563,2.563,0,0,1-.857-1.716,15.143,15.143,0,0,1,.256-4.018,11.51,11.51,0,0,1,1.65-4.247,9.547,9.547,0,0,1,2.6-2.646,14.14,14.14,0,0,1,1.955-1.08.429.429,0,0,1,.5.057,8.039,8.039,0,0,0,3.15,1.432,13.049,13.049,0,0,0,4.494.229,8.689,8.689,0,0,0,4.5-1.683.369.369,0,0,1,.415-.051,10.817,10.817,0,0,1,3.08,1.961,10.158,10.158,0,0,1,2.845,4.714,14.977,14.977,0,0,1,.6,3.889A12.966,12.966,0,0,1,200.6,298.622Z" transform="translate(-9348.134 -22883.551)" fill="#fff"/>
      <path id="Trazado_2117" data-name="Trazado 2117" d="M295.62,256.379a9.952,9.952,0,0,0,3.295-1,4.1,4.1,0,0,0,2.229-3.55,17.264,17.264,0,0,0-.425-4.633,12.386,12.386,0,0,0-1.089-3.091,10.874,10.874,0,0,0-2.2-2.977,11.966,11.966,0,0,0-2.36-1.758,9.407,9.407,0,0,0-1.261-.611c-.286-.108-.285-.148-.07-.379a7.693,7.693,0,0,0,.577-.719,8.247,8.247,0,0,0,1.392-3.52,13.022,13.022,0,0,0,.114-2.928,9.3,9.3,0,0,0-.876-3.513,7.111,7.111,0,0,0-3.494-3.443,10.572,10.572,0,0,0-3.966-.918,12.552,12.552,0,0,0-4.206.452,7.467,7.467,0,0,0-5.564,6.668c-.076.6-.106,1.21-.157,1.815h0a12.416,12.416,0,0,1,1.415.645.33.33,0,0,0,.038-.047.637.637,0,0,0,.052-.405,10.848,10.848,0,0,1,.391-3.267.684.684,0,0,1,.119-.363,1.114,1.114,0,0,0,.051-.109,5.7,5.7,0,0,1,1.825-2.44,7.1,7.1,0,0,1,3.236-1.328,13.215,13.215,0,0,1,2.711-.135,9.527,9.527,0,0,1,3.152.633,5.638,5.638,0,0,1,2.987,2.644,8.536,8.536,0,0,1,.882,3.785,9.564,9.564,0,0,1-.551,3.558,5.668,5.668,0,0,1-1.115,1.865,6.4,6.4,0,0,1-3.8,1.993,12.529,12.529,0,0,1-3.25.142,9.012,9.012,0,0,1-2.737-.591.32.32,0,0,0-.217-.037.18.18,0,0,0-.064.037l.1,1.491a12.857,12.857,0,0,0,4.238.606,11.27,11.27,0,0,0,4.485-.962.168.168,0,0,1,.19-.11,1.044,1.044,0,0,1,1.072-.064,10.192,10.192,0,0,1,4.876,3.674,11.738,11.738,0,0,1,1.859,4.676,19.178,19.178,0,0,1,.274,3.332,2.947,2.947,0,0,1-.718,2.037.29.29,0,0,1-.181.184,5.23,5.23,0,0,1-2.355,1.082,27.172,27.172,0,0,1-4.708.5c-1.226.055-2.451.021-3.675.048-.119,0-.238.011-.357.017.107.464.078.949.224,1.407h0c1.137-.031,2.275-.067,3.412-.092A30.988,30.988,0,0,0,295.62,256.379Zm-16.232-27.245c0-.116,0-.231.118-.3A.319.319,0,0,1,279.388,229.135Z" transform="translate(-9434.191 -22844.318)" fill="#fff"/>
      <path id="Trazado_2118" data-name="Trazado 2118" d="M385.277,427.5c-.263-.257-.8-.035-1.212-.088-.428-.056-.626.149-.806.508-.567,1.13-1.165,2.245-1.761,3.36-.776,1.454-1.562,2.9-2.342,4.354-.432.8-.861,1.611-1.335,2.5-.1-.151-.144-.213-.18-.28q-1.073-2.017-2.143-4.036c-.9-1.7-1.808-3.4-2.677-5.12-.642-1.271-.617-1.269-2.064-1.287-.4-.005-.507.109-.505.51.015,4.049.009,8.1.009,12.146,0,1.113.007,2.226-.005,3.339,0,.288.077.409.382.388a6.061,6.061,0,0,1,1.015,0c.4.039.514-.089.512-.5-.016-3.677-.01-7.355-.01-11.033v-.67c.251.44.439.754.612,1.077q1.978,3.693,3.951,7.388c.059.11.089.249.257.249.5,0,1,0,1.5,0,.2,0,.214-.163.281-.284.4-.717.8-1.432,1.189-2.151q1.394-2.557,2.783-5.116c.166-.3.352-.6.529-.9l.081.034v2.222c0,3.065.007,6.129-.009,9.194,0,.382.1.523.486.485.3-.03.612,0,.919-.007.7-.008.628.093.629-.608q0-7.235,0-14.469C385.36,428.3,385.541,427.76,385.277,427.5Z" transform="translate(-9491.556 -23024.061)" fill="#fff"/>
      <path id="Trazado_2119" data-name="Trazado 2119" d="M441.29,354.8c-1.041-.505-2.112-.931-3.18-1.368a6.744,6.744,0,0,1-2.465-1.464,2.41,2.41,0,0,1,.415-3.522,4.855,4.855,0,0,1,2.541-.624,14.783,14.783,0,0,1,3.737.388c.271.058.422.052.449-.282a8.056,8.056,0,0,1,.177-1c.059-.278-.051-.4-.319-.479a12.815,12.815,0,0,0-5.641-.382,4.4,4.4,0,0,0-4.087,4.053,4.588,4.588,0,0,0,2.282,4.411,34.519,34.519,0,0,0,3.4,1.478,8.059,8.059,0,0,1,2.438,1.337,2.671,2.671,0,0,1,.762,2.823,2.507,2.507,0,0,1-1.77,1.75,7.962,7.962,0,0,1-3.057.3,3.353,3.353,0,0,1-1.565-.263,6.612,6.612,0,0,1-1.556-.313c-.3-.1-.409.006-.456.281a3.375,3.375,0,0,1-.187.891c-.187.388-.043.507.3.609a13.426,13.426,0,0,0,6.424.537,4.6,4.6,0,0,0,3.983-3.432A4.72,4.72,0,0,0,441.29,354.8Z" transform="translate(-9554.3 -22964.592)" fill="#fff"/>
      <path id="Trazado_2120" data-name="Trazado 2120" d="M597.7,376.432a4.552,4.552,0,0,0,3.285-2.581,8.583,8.583,0,0,0,.777-3.894,8.2,8.2,0,0,0-.956-4.233,4.4,4.4,0,0,0-1.794-1.758,6.876,6.876,0,0,0-4.057-.562,4.414,4.414,0,0,0-3.913,2.8,9.793,9.793,0,0,0-.028,7.442,4.254,4.254,0,0,0,2.831,2.625A7.32,7.32,0,0,0,597.7,376.432Zm-4.866-4.1a9.63,9.63,0,0,1,.134-5.241,3.037,3.037,0,0,1,3.523-2.014c1.9.219,2.625,1.232,2.927,3.269a11.09,11.09,0,0,1-.073,3.652c-.342,1.85-1.377,2.928-3.315,2.829A2.86,2.86,0,0,1,592.834,372.331Z" transform="translate(-9667.008 -22977.066)" fill="#fff"/>
      <path id="Trazado_2121" data-name="Trazado 2121" d="M492.184,366.663a4.756,4.756,0,0,0-2.437-2.789,7.085,7.085,0,0,0-3.789-.469,4.488,4.488,0,0,0-4.048,2.972,9.792,9.792,0,0,0,.011,7.22,4.349,4.349,0,0,0,2.982,2.728,7.283,7.283,0,0,0,3.813.09A4.556,4.556,0,0,0,491.848,374a8.487,8.487,0,0,0,.834-4.214A7.566,7.566,0,0,0,492.184,366.663Zm-2.011,5.823a2.8,2.8,0,0,1-2.886,2.339,3.939,3.939,0,0,1-2.02-.317,2.785,2.785,0,0,1-1.385-1.767,7.784,7.784,0,0,1-.384-2.8,7.65,7.65,0,0,1,.3-2.486,3.025,3.025,0,0,1,3.639-2.365c1.841.237,2.554,1.045,2.892,3.129A10.619,10.619,0,0,1,490.172,372.486Z" transform="translate(-9588.907 -22977.074)" fill="#fff"/>
      <path id="Trazado_2122" data-name="Trazado 2122" d="M614.79,450.858c-.039-1.237.075-2.737-.075-4.234a2.954,2.954,0,0,0-2.073-2.7,10.075,10.075,0,0,0-5.109-.176c-.976.163-.939.2-.914,1.145.012.447.153.553.565.47a10.522,10.522,0,0,1,3.511-.156c1.326.183,1.993.558,2.079,1.831.07,1.053.063,1.057-.983,1.053a12.474,12.474,0,0,0-3.977.364,3.515,3.515,0,0,0-1.479.865,3.412,3.412,0,0,0-.9,2.893,3.291,3.291,0,0,0,2.805,3.116,6.314,6.314,0,0,0,4.512-.757c.166-.1.391-.179.367.12-.055.683.353.693.835.649a2.041,2.041,0,0,1,.435,0c.317.041.415-.081.411-.4C614.78,453.668,614.79,452.394,614.79,450.858Zm-2.308,2.371a7.214,7.214,0,0,1-3.1.586,2.083,2.083,0,0,1-.077-4.161,19.535,19.535,0,0,1,3.231-.11c.239-.008.253.126.252.3,0,.5,0,1,0,1.5,0,.467-.011.935.005,1.4A.433.433,0,0,1,612.482,453.229Z" transform="translate(-9659.939 -23035.611)" fill="#fff"/>
      <path id="Trazado_2123" data-name="Trazado 2123" d="M441.857,443.959a6.826,6.826,0,0,0-3.9-.289,4.262,4.262,0,0,0-3.211,2.492,7.911,7.911,0,0,0-.591,3.344,9.744,9.744,0,0,0,.122,1.781,4.548,4.548,0,0,0,2.92,3.806,6.893,6.893,0,0,0,2.942.336,4.3,4.3,0,0,0,3.98-2.586,8.422,8.422,0,0,0-.005-6.711A3.9,3.9,0,0,0,441.857,443.959Zm.471,8.022a2.57,2.57,0,0,1-1.561,1.653,3.529,3.529,0,0,1-3.707-.742,4.15,4.15,0,0,1-.824-2.569c-.018-.273,0-.547,0-.821a6.879,6.879,0,0,1,.419-2.741,2.539,2.539,0,0,1,1.953-1.536,4.218,4.218,0,0,1,1.867.048,2.766,2.766,0,0,1,2.075,2.512A8.191,8.191,0,0,1,442.328,451.981Z" transform="translate(-9537.316 -23035.617)" fill="#fff"/>
      <path id="Trazado_2124" data-name="Trazado 2124" d="M537.637,376.406c1.125-.208,1.108-.2.986-1.395-.035-.343-.15-.376-.438-.337a10.128,10.128,0,0,1-1.976.113c-.371,0-.745.03-1.112-.005a3.292,3.292,0,0,1-3.112-2.329,7.6,7.6,0,0,1,.235-5.516,2.958,2.958,0,0,1,1.656-1.541,6.17,6.17,0,0,1,3.471-.259c1.227.2,1.217.2,1.251-1.061.009-.325-.1-.454-.414-.513a11.581,11.581,0,0,0-4.278-.087,5.073,5.073,0,0,0-3.779,2.852,7.7,7.7,0,0,0-.68,2.794,8.291,8.291,0,0,0,.752,4.743,4.662,4.662,0,0,0,2.9,2.377A9.627,9.627,0,0,0,537.637,376.406Z" transform="translate(-9623.396 -22977.051)" fill="#fff"/>
      <path id="Trazado_2125" data-name="Trazado 2125" d="M544.824,450.042A5.63,5.63,0,0,0,542.839,449a21.421,21.421,0,0,1-2.865-1.007,1.259,1.259,0,0,1-.8-1.355,1.229,1.229,0,0,1,.891-1.186,3.93,3.93,0,0,1,1.315-.27,11.369,11.369,0,0,1,2.5.221c.867.167.87.15.974-.715.077-.64.077-.64-.593-.757a2.239,2.239,0,0,1-1.087-.255,8.929,8.929,0,0,0-2.976,0c-2.072.42-3.278,1.71-2.812,3.953a1.091,1.091,0,0,1,.27.593,1.576,1.576,0,0,0,.3.43,5.48,5.48,0,0,0,2.547,1.375,23.143,23.143,0,0,1,2.44.877,1.227,1.227,0,0,1,.834,1.076,1.388,1.388,0,0,1-.709,1.425,3.284,3.284,0,0,1-1.327.419,12.218,12.218,0,0,1-3.036-.139c-1.152-.2-1.141-.2-1.186.969-.011.272.094.357.322.426a9.329,9.329,0,0,0,2.039.355,7.027,7.027,0,0,0,4.6-.858A3.067,3.067,0,0,0,544.824,450.042Z" transform="translate(-9611.162 -23035.639)" fill="#fff"/>
      <path id="Trazado_2126" data-name="Trazado 2126" d="M485.019,443.963c-.187,0-.232.086-.283.244-.438,1.361-.891,2.716-1.332,4.076q-.846,2.605-1.681,5.214l-.1.026-2.377-7.139a.354.354,0,0,1-.17-.4c-.2-.595-.4-1.188-.587-1.786-.044-.14-.092-.229-.255-.227-.608,0-1.217,0-1.835,0a.936.936,0,0,0,.016.186q1.81,5.079,3.624,10.156a.458.458,0,0,1,.171.4c.3.954.3.954,1.306.954.288,0,.578-.018.864,0,.255.021.361-.081.436-.316.185-.577.4-1.144.6-1.715a.588.588,0,0,1,.186-.489l.307-.958a1.335,1.335,0,0,1,.266-.694l2.622-7.532C486.173,443.967,485.6,443.973,485.019,443.963Z" transform="translate(-9567.562 -23035.938)" fill="#fff"/>
      <path id="Trazado_2127" data-name="Trazado 2127" d="M579.138,445.508a6.655,6.655,0,0,1-1.973.087,1.3,1.3,0,0,1-1.31-1.285c-.172-2.382-.035-4.769-.079-7.154,0-.27.156-.268.345-.267.564,0,1.129,0,1.693,0,1.142,0,1.132,0,1.073-1.138-.013-.266-.114-.321-.351-.317-.725.011-1.452-.024-2.176.014-.448.023-.622-.075-.594-.567.047-.82,0-1.644.019-2.466.008-.32-.12-.4-.4-.342-.392.088-.781.191-1.174.277-.287.062-.43.189-.4.52.036.432.008.87.008,1.3,0,1.37,0,1.369-1.359,1.524-.915.1-.733-.008-.763.889-.008.231.071.312.3.306.483-.013.968.014,1.45-.01.307-.015.379.1.376.388-.014,1.177-.006,2.354-.006,3.531h.015c0,1.193-.028,2.387.007,3.579a2.645,2.645,0,0,0,2.295,2.773,7.408,7.408,0,0,0,2.261.009c1.217-.158,1.209-.154,1.127-1.355C579.5,445.524,579.418,445.452,579.138,445.508Z" transform="translate(-9635.803 -23027.41)" fill="#fff"/>
      <path id="Trazado_2128" data-name="Trazado 2128" d="M655.92,443.957c.015-.292-.087-.38-.381-.394a5.159,5.159,0,0,0-3.53,1.163c-.128.242-.244.173-.279-.037a3.785,3.785,0,0,1,0-.647c.035-.265-.064-.386-.348-.37a9.923,9.923,0,0,1-1.015,0c-.238-.011-.3.086-.3.31q.008,5.538,0,11.076c0,.263.093.333.338.322a7.332,7.332,0,0,1,1.111,0c.434.047.533-.108.53-.531-.02-2.741-.009-5.482-.013-8.222a.585.585,0,0,1,.32-.62,5.161,5.161,0,0,1,3.223-.566c.263.031.352-.014.344-.278C655.906,444.763,655.9,444.359,655.92,443.957Z" transform="translate(-9691.921 -23035.646)" fill="#fff"/>
      <path id="Trazado_2129" data-name="Trazado 2129" d="M574.262,364.488a5.967,5.967,0,0,1-1.11,0c-.471-.051-.557.151-.555.577.015,3.465.008,6.929.008,10.394,0,.419.012.838,0,1.256-.011.277.1.369.367.36.451-.015.9-.025,1.353,0,.346.021.432-.105.43-.438-.014-1.95-.007-3.9-.007-5.85,0-1.934-.009-3.867.008-5.8C574.754,364.611,574.653,364.457,574.262,364.488Z" transform="translate(-9654.335 -22977.885)" fill="#fff"/>
      <path id="Trazado_2130" data-name="Trazado 2130" d="M521.859,443.94a11.819,11.819,0,0,1-1.257,0c-.257-.009-.328.09-.328.339q.01,5.515,0,11.032c0,.252.078.345.331.336a12.077,12.077,0,0,1,1.258,0c.354.026.427-.113.424-.44-.014-1.806-.007-3.612-.007-5.419s-.008-3.612.007-5.419C522.289,444.045,522.208,443.915,521.859,443.94Z" transform="translate(-9598.981 -23035.918)" fill="#fff"/>
      <path id="Trazado_2131" data-name="Trazado 2131" d="M573.018,349.207a1.171,1.171,0,0,0,1.3-1.36c.008-1.026-.337-1.421-1.251-1.43-.95-.01-1.354.383-1.365,1.327C571.69,348.717,572.127,349.22,573.018,349.207Z" transform="translate(-9653.694 -22964.951)" fill="#fff"/>
      <path id="Trazado_2132" data-name="Trazado 2132" d="M520.822,426.957a1.13,1.13,0,0,0-1.271,1.275c-.007.856.38,1.26,1.213,1.266a1.1,1.1,0,0,0,1.264-1.231A1.156,1.156,0,0,0,520.822,426.957Z" transform="translate(-9598.413 -23023.502)" fill="#fff"/>
      <path id="Trazado_2133" data-name="Trazado 2133" d="M443.295,402.654a5.438,5.438,0,0,0-1.565-.263A3.352,3.352,0,0,0,443.295,402.654Z" transform="translate(-9560.627 -23005.033)" fill="#fff"/>
      <path id="Trazado_2134" data-name="Trazado 2134" d="M558.022,444a2.239,2.239,0,0,0,1.087.255A2.117,2.117,0,0,0,558.022,444Z" transform="translate(-9626.013 -23035.965)" fill="#17c900"/>
      <path id="Trazado_2135" data-name="Trazado 2135" d="M655.889,445.909c.035.211.151.28.279.037-.379-.111-.094-.494-.281-.685A3.779,3.779,0,0,0,655.889,445.909Z" transform="translate(-9696.08 -23036.865)" fill="#fff"/>
      <path id="Trazado_2136" data-name="Trazado 2136" d="M503.122,470.5a1.335,1.335,0,0,0-.266.694A.852.852,0,0,0,503.122,470.5Z" transform="translate(-9586.509 -23054.941)" fill="#fff"/>
      <path id="Trazado_2137" data-name="Trazado 2137" d="M537.9,458.5a1.092,1.092,0,0,0-.27-.593A.685.685,0,0,0,537.9,458.5Z" transform="translate(-9611.406 -23045.922)" fill="#fff"/>
      <path id="Trazado_2138" data-name="Trazado 2138" d="M485.958,451.467a.368.368,0,0,0-.17-.4A.354.354,0,0,0,485.958,451.467Z" transform="translate(-9574.278 -23041.021)" fill="#fff"/>
      <path id="Trazado_2139" data-name="Trazado 2139" d="M501.3,476.321a.588.588,0,0,0-.186.489A.54.54,0,0,0,501.3,476.321Z" transform="translate(-9585.258 -23059.107)" fill="#fff"/>
      <path id="Trazado_2140" data-name="Trazado 2140" d="M489.362,480.807a.458.458,0,0,0-.171-.4A.362.362,0,0,0,489.362,480.807Z" transform="translate(-9576.715 -23062.031)" fill="#fff"/>
      <path id="Trazado_2141" data-name="Trazado 2141" d="M196.476,444.15a1.321,1.321,0,0,0-.546-.17A.779.779,0,0,0,196.476,444.15Z" transform="translate(-9366.922 -23026.174)" fill="#fff"/>
      <path id="Trazado_2142" data-name="Trazado 2142" d="M303.346,299.373a.635.635,0,0,0,.178.481.661.661,0,0,0-.034-.188.879.879,0,0,0-.046-.119A1.638,1.638,0,0,0,303.346,299.373Z" transform="translate(-9455.445 -22906.998)" fill="#fff"/>
      <path id="Trazado_2143" data-name="Trazado 2143" d="M296.488,338.187a.292.292,0,0,0,.124-.3C296.5,337.956,296.493,338.072,296.488,338.187Z" transform="translate(-9449.795 -22938.74)" fill="#fff"/>
      <path id="Trazado_2144" data-name="Trazado 2144" d="M300.045,292.547a.2.2,0,0,0-.073-.036c-.01.127.073.192.165.252a.773.773,0,0,0-.024-.112A.208.208,0,0,0,300.045,292.547Z" transform="translate(-9452.665 -22901.344)" fill="#fff"/>
      <path id="Trazado_2145" data-name="Trazado 2145" d="M277.074,359.154c.1.008.2,0,.243-.117A.234.234,0,0,0,277.074,359.154Z" transform="translate(-9433.795 -22956.168)" fill="#fff"/>
      <path id="Trazado_2146" data-name="Trazado 2146" d="M287.974,255a.319.319,0,0,0,.118-.3C287.972,254.764,287.971,254.879,287.974,255Z" transform="translate(-9442.778 -22870.18)" fill="#fff"/>
      <path id="Trazado_2147" data-name="Trazado 2147" d="M398.789,395.337a.29.29,0,0,0,.181-.184A.2.2,0,0,0,398.789,395.337Z" transform="translate(-9534.105 -22985.934)" fill="#fff"/>
      <path id="Trazado_2148" data-name="Trazado 2148" d="M357.062,317.49a.168.168,0,0,0-.19.11C356.959,317.6,357.04,317.6,357.062,317.49Z" transform="translate(-9499.56 -22921.926)" fill="#fff"/>
    </g>
  </g>
</svg>
