<svg xmlns="http://www.w3.org/2000/svg" viewBox="0 0 77.783 151.737">
  <defs>
    <style>
      .cls-1 {
        fill: #ff3939;
      }

      .cls-2 {
        fill: #fc6565;
      }

      .cls-3 {
        fill: #f4d603;
      }

      .cls-4 {
        fill: #ccac0d;
      }

      .cls-5 {
        fill: #f2e038;
      }
    </style>
  </defs>
  <g id="Group_1934" data-name="Group 1934" transform="translate(0.119)">
    <rect id="Rectangle_1163" data-name="Rectangle 1163" class="cls-1" width="33.443" height="84.539" transform="translate(22.361)"/>
    <rect id="Rectangle_1164" data-name="Rectangle 1164" class="cls-2" width="10.528" height="84.539" transform="translate(33.818)"/>
    <g id="_x34__1_" transform="translate(-0.119 70.604)">
      <path id="Path_1797" data-name="Path 1797" class="cls-3" d="M38.773,126.733c-4.026,0-6.967-6.658-10.683-7.9s-10.064,2.477-13.161.155c-3.251-2.323-1.7-9.445-4.026-12.542S1.3,102.579.065,98.708c-1.239-3.716,4.18-8.516,4.18-12.542S-1.173,77.341.065,73.625s8.516-4.49,10.838-7.742.774-10.374,4.026-12.542c3.1-2.323,9.445,1.394,13.161.155s6.658-7.9,10.683-7.9,6.967,6.658,10.683,7.9,10.064-2.477,13.161-.155c3.251,2.323,1.7,9.445,4.026,12.542s9.6,3.871,10.838,7.742c1.239,3.716-4.18,8.516-4.18,12.542s5.419,8.826,4.18,12.542-8.516,4.49-10.838,7.742-.774,10.374-4.026,12.542c-3.1,2.322-9.445-1.394-13.161-.155S42.8,126.733,38.773,126.733Z" transform="translate(0.119 -45.6)"/>
      <ellipse id="Ellipse_321" data-name="Ellipse 321" class="cls-4" cx="23.689" cy="23.69" rx="23.689" ry="23.69" transform="translate(15.203 16.877)"/>
      <path id="Path_1798" data-name="Path 1798" class="cls-5" d="M29.386,83.109l7.741,4.026L35.58,78.619l6.193-6.039-8.516-1.239L29.386,63.6,25.67,71.342,17,72.58l6.193,6.039L21.8,87.135Z" transform="translate(9.505 -35.73)"/>
    </g>
  </g>
</svg>
