<svg xmlns="http://www.w3.org/2000/svg" viewBox="0 0 30 30">
  <defs>
    <style>
      .cls-1 {
        fill: none;
      }

      .cls-2 {
        fill: #25282b;
      }
    </style>
  </defs>
  <g id="Group_6212" data-name="Group 6212" transform="translate(8453 10599)">
    <rect id="Rectangle_3779" data-name="Rectangle 3779" class="cls-1" width="30" height="30" transform="translate(-8453 -10599)"/>
    <g id="Group_6207" data-name="Group 6207" transform="translate(-241.113 -97)">
      <path id="Path_930" data-name="Path 930" class="cls-2" d="M18.571,77.159,16.184,72.3a.337.337,0,0,0-.3-.169H13.966a.317.317,0,1,0,0,.634H15.7l2.07,4.224H.893l2.281-4.457,1.859.042a.317.317,0,1,0,0-.634L2.984,71.9a.337.337,0,0,0-.3.169l-2.6,5.09a.339.339,0,0,0,.021.317.293.293,0,0,0,.253.148H18.3a.361.361,0,0,0,.275-.148A.411.411,0,0,0,18.571,77.159Z" transform="translate(-8205.947 -10553.714)"/>
      <path id="Path_931" data-name="Path 931" class="cls-2" d="M35.664,25.131A2.366,2.366,0,1,0,33.3,22.766,2.362,2.362,0,0,0,35.664,25.131Zm0-4.119a1.732,1.732,0,1,1-1.732,1.732A1.713,1.713,0,0,1,35.664,21.013Z" transform="translate(-8232.165 -10513.092)"/>
      <path id="Path_932" data-name="Path 932" class="cls-2" d="M18.889,16.812h0l.021.021a.339.339,0,0,0,.232.106.357.357,0,0,0,.211-.063,34.83,34.83,0,0,0,4.985-5.682c1.584-2.725,1.9-5.513.845-7.9C24.169.993,22.332,0,19.248,0h0a.275.275,0,0,1-.211,0h0c-3.1,0-4.921.993-5.935,3.295-1.056,2.387-.739,5.154.845,7.878A32.469,32.469,0,0,0,18.889,16.812ZM13.672,3.527C14.58,1.457,16.185.57,19.037.549c.042,0,.106-.021.148-.021h.063c2.851.021,4.457.908,5.365,2.978.676,1.542,1.1,4.076-.8,7.35A33.412,33.412,0,0,1,19.163,16.2a31.553,31.553,0,0,1-4.647-5.322C12.574,7.6,13,5.069,13.672,3.527Z" transform="translate(-8215.748 -10497)"/>
    </g>
  </g>
</svg>
