<svg xmlns="http://www.w3.org/2000/svg" viewBox="0 0 30 30">
  <defs>
    <style>
      .cls-1 {
        fill: none;
      }

      .cls-2 {
        fill: #25282b;
      }
    </style>
  </defs>
  <g id="Group_6209" data-name="Group 6209" transform="translate(8377 10636)">
    <rect id="Rectangle_3781" data-name="Rectangle 3781" class="cls-1" width="30" height="30" transform="translate(-8377 -10636)"/>
    <g id="Group_6206" data-name="Group 6206" transform="translate(-166 -94)">
      <path id="Path_943" data-name="Path 943" class="cls-2" d="M6.655,0A6.667,6.667,0,0,0,0,6.655,6.359,6.359,0,0,0,.514,9.2h0c.047.117,2.405,5.7,2.639,6.328v5.534a.3.3,0,0,0,.327.3H4.32l.607,1.448A.313.313,0,0,0,5.254,23h2.8a.347.347,0,0,0,.327-.187l.607-1.448h.817a.321.321,0,0,0,.35-.3V15.528c.234-.654,2.569-6.211,2.639-6.328h0a6.785,6.785,0,0,0,.514-2.545A6.7,6.7,0,0,0,6.655,0Zm0,15.761h2.8v1.168h-5.6V15.761Zm-2.8,1.868h5.6V18.8h-5.6ZM7.8,22.3H5.464l-.4-.934H8.219Zm1.658-1.635h-5.6V19.5h5.6ZM12.142,8.92a5.857,5.857,0,0,1-.42,1.027L9.574,15.061H7.122l1.261-3.923c0-.023,0-.023.023-.047a.369.369,0,0,0-.35-.467H5.744l1.261-3.9c0-.047.023-.047.023-.093a.345.345,0,0,0-.677-.093l-1.4,4.39c0,.023-.023.047-.023.07-.023.28.187.327.35.327H7.589L6.421,15.061H3.713L1.564,9.9a9.083,9.083,0,0,1-.4-1A10.447,10.447,0,0,1,.7,6.631a5.954,5.954,0,0,1,11.909.023A12.644,12.644,0,0,1,12.142,8.92Z" transform="translate(-8203 -10538)"/>
    </g>
  </g>
</svg>
