<svg xmlns="http://www.w3.org/2000/svg" viewBox="0 0 22.193 22.121">
  <defs>
    <style>
      .cls-1 {
        fill: #004c9b;
      }
    </style>
  </defs>
  <g id="Group_80" data-name="Group 80" transform="translate(0.05)">
    <path id="Path_6" data-name="Path 6" class="cls-1" d="M9.553,16.164A7.982,7.982,0,0,0,8.08,25.4a.4.4,0,0,0,.33.2.471.471,0,0,0,.178-.051.414.414,0,0,0,.178-.508,7.251,7.251,0,0,1,1.32-8.352.377.377,0,1,0-.533-.533Z" transform="translate(-5.427 -11.976)"/>
    <path id="Path_7" data-name="Path 7" class="cls-1" d="M22.029,21.487l-5.21-4.91a9.841,9.841,0,0,0-.152-13.708,9.806,9.806,0,0,0-13.861,0,9.837,9.837,0,0,0,0,13.861,9.8,9.8,0,0,0,13.454.381L20.124,20.7,21.5,22.02a.364.364,0,0,0,.254.1.408.408,0,0,0,.279-.127A.339.339,0,0,0,22.029,21.487ZM3.364,16.2a9.055,9.055,0,0,1,0-12.794A8.948,8.948,0,0,1,9.736.762a9.05,9.05,0,0,1,0,18.1A8.868,8.868,0,0,1,3.364,16.2Z"/>
  </g>
</svg>
