<svg xmlns="http://www.w3.org/2000/svg" viewBox="0 0 43.92 40"><defs><style>.cls-1{fill:#fff;}.cls-2{fill:none;}</style></defs><title>user</title><g id="Capa_2" data-name="Capa 2"><g id="Capa_1-2" data-name="Capa 1"><g id="Group_835" data-name="Group 835"><path id="Path_4" data-name="Path 4" class="cls-1" d="M39.89,32.51a24.53,24.53,0,0,0-14.81-6.72,9.86,9.86,0,1,0-6.24,0A24.75,24.75,0,0,0,4,32.47a.54.54,0,0,0,0,.76l0,0a.56.56,0,0,0,.41.15.56.56,0,0,0,.41-.15c8.8-8.76,25.47-8.76,34.26,0a.55.55,0,0,0,.78-.78Zm-26.62-16A8.69,8.69,0,1,1,22,25.16,8.69,8.69,0,0,1,13.28,16.47Z"/></g><rect class="cls-2" width="43.92" height="40"/></g></g></svg>